<?xml version="1.0" encoding="UTF-8"?>
<svg xmlns="http://www.w3.org/2000/svg" xmlns:xlink="http://www.w3.org/1999/xlink" width="20pt" height="20pt" viewBox="0 0 20 20" version="1.1">
<g id="surface1">
<path style=" stroke:none;fill-rule:nonzero;fill:rgb(27.058824%,35.294118%,39.215686%);fill-opacity:1;" d="M 10.296875 0.121094 C 10.132812 -0.0390625 9.867188 -0.0390625 9.707031 0.121094 L 1.789062 8.039062 C 0.9375 8.890625 0.9375 10.273438 1.789062 11.128906 C 2.640625 11.980469 4.027344 11.980469 4.878906 11.128906 L 7.917969 8.089844 L 7.917969 17.917969 C 7.917969 19.066406 8.851562 20 10 20 C 11.152344 20 12.085938 19.066406 12.085938 17.917969 L 12.085938 8.089844 L 15.121094 11.128906 C 15.976562 11.980469 17.359375 11.980469 18.210938 11.128906 C 19.0625 10.273438 19.0625 8.890625 18.210938 8.039062 Z M 10.296875 0.121094 "/>
<path style=" stroke:none;fill-rule:nonzero;fill:rgb(0%,0%,0%);fill-opacity:1;" d="M 10 20 C 8.851562 20 7.917969 19.066406 7.917969 17.917969 L 7.917969 8.089844 L 4.878906 11.128906 C 4.023438 11.980469 2.640625 11.980469 1.789062 11.128906 C 0.9375 10.273438 0.9375 8.890625 1.789062 8.039062 L 9.703125 0.121094 C 9.867188 -0.0390625 10.132812 -0.0390625 10.296875 0.121094 L 18.210938 8.039062 C 19.0625 8.890625 19.0625 10.273438 18.210938 11.128906 C 17.359375 11.980469 15.976562 11.980469 15.121094 11.128906 L 12.085938 8.089844 L 12.085938 17.917969 C 12.085938 19.066406 11.152344 20 10 20 Z M 8.335938 6.667969 C 8.390625 6.667969 8.441406 6.679688 8.492188 6.699219 C 8.648438 6.761719 8.75 6.914062 8.75 7.085938 L 8.75 17.917969 C 8.75 18.609375 9.3125 19.167969 10 19.167969 C 10.691406 19.167969 11.25 18.609375 11.25 17.917969 L 11.25 7.085938 C 11.25 6.851562 11.4375 6.667969 11.664062 6.664062 C 11.777344 6.664062 11.882812 6.710938 11.960938 6.789062 L 15.710938 10.539062 C 16.242188 11.066406 17.09375 11.066406 17.625 10.539062 C 18.148438 10.011719 18.148438 9.15625 17.625 8.628906 L 10 1.007812 L 2.378906 8.628906 C 1.851562 9.15625 1.851562 10.011719 2.378906 10.539062 C 2.90625 11.066406 3.761719 11.066406 4.289062 10.539062 L 8.039062 6.789062 C 8.117188 6.710938 8.222656 6.667969 8.335938 6.667969 Z M 8.335938 6.667969 "/>
</g>
</svg>
